<?xml version="1.0" encoding="iso-8859-1"?>
<!-- Generator: Adobe Illustrator 19.0.0, SVG Export Plug-In . SVG Version: 6.00 Build 0)  -->
<svg version="1.1" id="Layer_1" xmlns="http://www.w3.org/2000/svg" xmlns:xlink="http://www.w3.org/1999/xlink" x="0px" y="0px"
	 viewBox="0 0 512 512" style="enable-background:new 0 0 512 512;" xml:space="preserve">
<path style="fill:#575771;" d="M322.783,434.087H189.217c-9.217,0-16.696-7.473-16.696-16.696v-66.783
	c0-9.223,7.479-16.696,16.696-16.696h133.565c9.217,0,16.696,7.473,16.696,16.696v66.783
	C339.478,426.614,332,434.087,322.783,434.087z"/>
<path style="fill:#494965;" d="M322.783,333.913H256v100.174h66.783c9.217,0,16.696-7.473,16.696-16.696v-66.783
	C339.478,341.386,332,333.913,322.783,333.913z"/>
<g>
	<path style="fill:#895F3A;" d="M189.217,512h-66.783c-9.217,0-16.696-7.473-16.696-16.696V283.826
		c0-9.223,7.479-16.696,16.696-16.696h66.783c9.217,0,16.696,7.473,16.696,16.696v211.478C205.913,504.527,198.435,512,189.217,512z
		"/>
	<path style="fill:#895F3A;" d="M389.565,512h-66.783c-9.217,0-16.696-7.473-16.696-16.696V283.826
		c0-9.223,7.479-16.696,16.696-16.696h66.783c9.217,0,16.696,7.473,16.696,16.696v211.478C406.261,504.527,398.782,512,389.565,512z
		"/>
</g>
<g>
	<path style="fill:#7D4C30;" d="M389.565,267.13h-33.391V512h33.391c9.217,0,16.696-7.473,16.696-16.696V283.826
		C406.261,274.603,398.782,267.13,389.565,267.13z"/>
	<path style="fill:#7D4C30;" d="M189.217,267.13h-33.391V512h33.391c9.217,0,16.696-7.473,16.696-16.696V283.826
		C205.913,274.603,198.435,267.13,189.217,267.13z"/>
</g>
<path style="fill:#575771;" d="M222.609,512H89.043c-9.217,0-16.696-7.473-16.696-16.696s7.479-16.696,16.696-16.696h133.565
	c9.217,0,16.696,7.473,16.696,16.696S231.826,512,222.609,512z"/>
<path style="fill:#494965;" d="M422.957,512H289.391c-9.217,0-16.696-7.473-16.696-16.696s7.479-16.696,16.696-16.696h133.565
	c9.217,0,16.696,7.473,16.696,16.696S432.174,512,422.957,512z"/>
<path style="fill:#575771;" d="M456.348,200.348H55.652c-9.217,0-16.696,7.473-16.696,16.696c0,46.032,37.446,83.478,83.478,83.478
	h267.13c46.032,0,83.478-37.446,83.478-83.478C473.043,207.821,465.565,200.348,456.348,200.348z"/>
<path style="fill:#494965;" d="M456.348,200.348H256v100.174h133.565c46.032,0,83.478-37.446,83.478-83.478
	C473.043,207.821,465.565,200.348,456.348,200.348z"/>
<path style="fill:#BA4931;" d="M256,267.13c-73.652,0-133.565-59.918-133.565-133.565S182.348,0,256,0
	s133.565,59.918,133.565,133.565S329.652,267.13,256,267.13z"/>
<path style="fill:#AD3D25;" d="M389.565,133.565C389.565,59.918,329.652,0,256,0v267.13
	C329.652,267.13,389.565,207.212,389.565,133.565z"/>
<path style="fill:#EBE2E2;" d="M256,33.391c-55.239,0-100.174,44.94-100.174,100.174S200.761,233.739,256,233.739
	s100.174-44.94,100.174-100.174S311.239,33.391,256,33.391z"/>
<path style="fill:#DCCACA;" d="M356.174,133.565c0-55.234-44.935-100.174-100.174-100.174v200.348
	C311.239,233.739,356.174,188.799,356.174,133.565z"/>
<g>
</g>
<g>
</g>
<g>
</g>
<g>
</g>
<g>
</g>
<g>
</g>
<g>
</g>
<g>
</g>
<g>
</g>
<g>
</g>
<g>
</g>
<g>
</g>
<g>
</g>
<g>
</g>
<g>
</g>
</svg>
