<svg xmlns="http://www.w3.org/2000/svg" xmlns:xlink="http://www.w3.org/1999/xlink" version="1.1" width="1000" height="1000" viewBox="0 0 1000 1000" xml:space="preserve">
<desc>Created with Fabric.js 3.5.0</desc>
<defs>
</defs>
<rect x="0" y="0" width="100%" height="100%" fill="#ffffff"/>
<g transform="matrix(3.2552 0 0 3.2552 245.454 249.3485)" id="841470">
<g style="" vector-effect="non-scaling-stroke">
		<g transform="matrix(1 0 0 1 0 -34.695)" id="Layer_1">
<path style="stroke: none; stroke-width: 1; stroke-dasharray: none; stroke-linecap: butt; stroke-dashoffset: 0; stroke-linejoin: miter; stroke-miterlimit: 4; is-custom-font: none; font-file-url: none; fill: rgb(239,65,54); fill-rule: evenodd; opacity: 1;" transform=" translate(-61.44, -25.805)" d="M 11.52 6.67 h 99.84 a 11.57 11.57 0 0 1 11.52 11.52 V 44.94 H 0 V 18.19 A 11.56 11.56 0 0 1 11.52 6.67 Z m 24.79 9.75 A 9.31 9.31 0 1 1 27 25.73 a 9.31 9.31 0 0 1 9.31 -9.31 Z m 49.79 0 a 9.31 9.31 0 1 1 -9.31 9.31 a 9.31 9.31 0 0 1 9.31 -9.31 Z" stroke-linecap="round"/>
</g>
		<g transform="matrix(1 0 0 1 0 20)" id="Layer_1">
<path style="stroke: none; stroke-width: 1; stroke-dasharray: none; stroke-linecap: butt; stroke-dashoffset: 0; stroke-linejoin: miter; stroke-miterlimit: 4; is-custom-font: none; font-file-url: none; fill: rgb(128,128,128); fill-rule: nonzero; opacity: 1;" transform=" translate(-61.44, -80.5)" d="M 111.36 121 H 11.52 A 11.57 11.57 0 0 1 0 109.48 V 40 H 122.88 v 69.46 A 11.56 11.56 0 0 1 111.36 121 Z" stroke-linecap="round"/>
</g>
		<g transform="matrix(1 0 0 1 0 18.155)" id="Layer_1">
<path style="stroke: none; stroke-width: 1; stroke-dasharray: none; stroke-linecap: butt; stroke-dashoffset: 0; stroke-linejoin: miter; stroke-miterlimit: 4; is-custom-font: none; font-file-url: none; fill: rgb(255,255,255); fill-rule: evenodd; opacity: 1;" transform=" translate(-61.44, -78.655)" d="M 12.75 117.31 h 97.38 a 9.1 9.1 0 0 0 9.06 -9.06 V 40 H 3.69 v 68.23 a 9.09 9.09 0 0 0 9.06 9.06 Z" stroke-linecap="round"/>
</g>
		<g transform="matrix(1 0 0 1 24.6723 -34.7594)" id="Layer_1">
<path style="stroke: none; stroke-width: 1; stroke-dasharray: none; stroke-linecap: butt; stroke-dashoffset: 0; stroke-linejoin: miter; stroke-miterlimit: 4; is-custom-font: none; font-file-url: none; fill: rgb(199,43,32); fill-rule: evenodd; opacity: 1;" transform=" translate(-86.1124, -25.7406)" d="M 86.1 14.63 a 11.11 11.11 0 1 1 -7.85 3.26 l 0.11 -0.1 a 11.06 11.06 0 0 1 7.74 -3.16 Z m 0 1.79 a 9.31 9.31 0 1 1 -9.31 9.31 a 9.31 9.31 0 0 1 9.31 -9.31 Z" stroke-linecap="round"/>
</g>
		<g transform="matrix(1 0 0 1 -25.1177 -34.7594)" id="Layer_1">
<path style="stroke: none; stroke-width: 1; stroke-dasharray: none; stroke-linecap: butt; stroke-dashoffset: 0; stroke-linejoin: miter; stroke-miterlimit: 4; is-custom-font: none; font-file-url: none; fill: rgb(199,43,32); fill-rule: evenodd; opacity: 1;" transform=" translate(-36.3224, -25.7406)" d="M 36.31 14.63 a 11.11 11.11 0 1 1 -7.85 3.26 l 0.11 -0.1 a 11.08 11.08 0 0 1 7.74 -3.16 Z m 0 1.79 A 9.31 9.31 0 1 1 27 25.73 a 9.31 9.31 0 0 1 9.31 -9.31 Z" stroke-linecap="round"/>
</g>
		<g transform="matrix(1 0 0 1 24.66 -45.335)" id="Layer_1">
<path style="stroke: none; stroke-width: 1; stroke-dasharray: none; stroke-linecap: butt; stroke-dashoffset: 0; stroke-linejoin: miter; stroke-miterlimit: 4; is-custom-font: none; font-file-url: none; fill: rgb(26,26,26); fill-rule: nonzero; opacity: 1;" transform=" translate(-86.1, -15.165)" d="M 80.54 4.56 C 80.54 2 83 0 86.1 0 s 5.56 2 5.56 4.56 V 25.77 c 0 2.51 -2.48 4.56 -5.56 4.56 s -5.56 -2 -5.56 -4.56 V 4.56 Z" stroke-linecap="round"/>
</g>
		<g transform="matrix(1 0 0 1 -25.13 -45.335)" id="Layer_1">
<path style="stroke: none; stroke-width: 1; stroke-dasharray: none; stroke-linecap: butt; stroke-dashoffset: 0; stroke-linejoin: miter; stroke-miterlimit: 4; is-custom-font: none; font-file-url: none; fill: rgb(26,26,26); fill-rule: nonzero; opacity: 1;" transform=" translate(-36.31, -15.165)" d="M 30.75 4.56 C 30.75 2 33.24 0 36.31 0 s 5.56 2 5.56 4.56 V 25.77 c 0 2.51 -2.48 4.56 -5.56 4.56 s -5.56 -2 -5.56 -4.56 V 4.56 Z" stroke-linecap="round"/>
</g>
		<g transform="matrix(1 0 0 1 -32.445 32.76)" id="Layer_1">
<path style="stroke: none; stroke-width: 1; stroke-dasharray: none; stroke-linecap: butt; stroke-dashoffset: 0; stroke-linejoin: miter; stroke-miterlimit: 4; is-custom-font: none; font-file-url: none; fill: rgb(26,26,26); fill-rule: evenodd; opacity: 1;" transform=" translate(-28.995, -93.26)" d="M 22 85.62 H 36 a 1.79 1.79 0 0 1 1.79 1.79 v 11.7 A 1.8 1.8 0 0 1 36 100.9 H 22 a 1.8 1.8 0 0 1 -1.8 -1.79 V 87.41 A 1.8 1.8 0 0 1 22 85.62 Z" stroke-linecap="round"/>
</g>
		<g transform="matrix(1 0 0 1 0.17 32.76)" id="Layer_1">
<path style="stroke: none; stroke-width: 1; stroke-dasharray: none; stroke-linecap: butt; stroke-dashoffset: 0; stroke-linejoin: miter; stroke-miterlimit: 4; is-custom-font: none; font-file-url: none; fill: rgb(26,26,26); fill-rule: evenodd; opacity: 1;" transform=" translate(-61.61, -93.26)" d="M 54.58 85.62 H 68.64 a 1.79 1.79 0 0 1 1.79 1.79 v 11.7 a 1.8 1.8 0 0 1 -1.79 1.79 H 54.58 a 1.8 1.8 0 0 1 -1.79 -1.79 V 87.41 a 1.8 1.8 0 0 1 1.79 -1.79 Z" stroke-linecap="round"/>
</g>
		<g transform="matrix(1 0 0 1 32.46 32.76)" id="Layer_1">
<path style="stroke: none; stroke-width: 1; stroke-dasharray: none; stroke-linecap: butt; stroke-dashoffset: 0; stroke-linejoin: miter; stroke-miterlimit: 4; is-custom-font: none; font-file-url: none; fill: rgb(26,26,26); fill-rule: evenodd; opacity: 1;" transform=" translate(-93.9, -93.26)" d="M 86.87 85.62 h 14.06 a 1.8 1.8 0 0 1 1.79 1.79 v 11.7 a 1.8 1.8 0 0 1 -1.79 1.79 H 86.87 a 1.8 1.8 0 0 1 -1.79 -1.79 V 87.41 a 1.79 1.79 0 0 1 1.79 -1.79 Z" stroke-linecap="round"/>
</g>
		<g transform="matrix(1 0 0 1 -32.445 3.56)" id="Layer_1">
<path style="stroke: none; stroke-width: 1; stroke-dasharray: none; stroke-linecap: butt; stroke-dashoffset: 0; stroke-linejoin: miter; stroke-miterlimit: 4; is-custom-font: none; font-file-url: none; fill: rgb(26,26,26); fill-rule: evenodd; opacity: 1;" transform=" translate(-28.995, -64.06)" d="M 22 56.42 H 36 a 1.8 1.8 0 0 1 1.79 1.8 V 69.91 A 1.8 1.8 0 0 1 36 71.7 H 22 a 1.8 1.8 0 0 1 -1.8 -1.79 V 58.22 a 1.81 1.81 0 0 1 1.8 -1.8 Z" stroke-linecap="round"/>
</g>
		<g transform="matrix(1 0 0 1 0.17 3.56)" id="Layer_1">
<path style="stroke: none; stroke-width: 1; stroke-dasharray: none; stroke-linecap: butt; stroke-dashoffset: 0; stroke-linejoin: miter; stroke-miterlimit: 4; is-custom-font: none; font-file-url: none; fill: rgb(26,26,26); fill-rule: evenodd; opacity: 1;" transform=" translate(-61.61, -64.06)" d="M 54.58 56.42 H 68.64 a 1.8 1.8 0 0 1 1.79 1.8 V 69.91 a 1.8 1.8 0 0 1 -1.79 1.79 H 54.58 a 1.79 1.79 0 0 1 -1.79 -1.79 V 58.22 a 1.8 1.8 0 0 1 1.79 -1.8 Z" stroke-linecap="round"/>
</g>
		<g transform="matrix(1 0 0 1 32.46 3.56)" id="Layer_1">
<path style="stroke: none; stroke-width: 1; stroke-dasharray: none; stroke-linecap: butt; stroke-dashoffset: 0; stroke-linejoin: miter; stroke-miterlimit: 4; is-custom-font: none; font-file-url: none; fill: rgb(26,26,26); fill-rule: evenodd; opacity: 1;" transform=" translate(-93.9, -64.06)" d="M 86.87 56.42 h 14.06 a 1.8 1.8 0 0 1 1.79 1.8 V 69.91 a 1.8 1.8 0 0 1 -1.79 1.79 H 86.87 a 1.79 1.79 0 0 1 -1.79 -1.79 V 58.22 a 1.8 1.8 0 0 1 1.79 -1.8 Z" stroke-linecap="round"/>
</g>
</g>
</g>
</svg>