<?xml version="1.0" standalone="no"?>
<!DOCTYPE svg PUBLIC "-//W3C//DTD SVG 20010904//EN"
 "http://www.w3.org/TR/2001/REC-SVG-20010904/DTD/svg10.dtd">
<svg version="1.0" xmlns="http://www.w3.org/2000/svg"
 width="150.000000pt" height="150.000000pt" viewBox="0 0 150.000000 150.000000"
 preserveAspectRatio="xMidYMid meet">

<g transform="translate(0.000000,150.000000) scale(0.100000,-0.100000)"
fill="#000000" stroke="none">
<path d="M505 940 c-124 -29 -188 -156 -137 -272 51 -117 214 -149 306 -59 23
23 41 31 67 31 25 0 43 7 59 25 l24 25 21 -20 22 -20 18 20 18 20 24 -22 23
-21 23 21 24 22 18 -20 c19 -21 19 -21 67 27 27 26 48 56 48 68 0 12 -17 38
-38 58 l-38 37 -175 0 -175 0 -29 30 c-39 41 -115 63 -170 50z m109 -55 c15
-8 37 -26 48 -40 l19 -25 178 0 177 0 27 -28 27 -28 -30 -29 c-29 -28 -30 -28
-50 -10 -19 17 -21 17 -40 0 -19 -17 -21 -17 -40 0 -18 16 -22 16 -42 3 -21
-14 -26 -14 -46 0 -22 14 -25 13 -55 -16 -24 -23 -42 -32 -67 -32 -26 0 -43
-9 -72 -37 -33 -32 -45 -37 -95 -41 -48 -3 -64 0 -93 20 -50 34 -72 82 -66
142 6 57 25 90 69 116 38 24 110 26 151 5z"/>
<path d="M422 800 c-43 -40 -14 -120 43 -120 29 0 65 40 65 73 0 33 -32 67
-63 67 -13 0 -33 -9 -45 -20z m68 -50 c0 -10 -6 -20 -12 -23 -21 -7 -38 4 -38
23 0 10 6 20 13 23 20 7 37 -4 37 -23z"/>
</g>
</svg>
