<?xml version="1.0"?>
<svg xmlns="http://www.w3.org/2000/svg" height="512px" viewBox="0 0 448.00018 448" width="512px"><path d="m112 48c0 8.835938-7.164062 16-16 16s-16-7.164062-16-16 7.164062-16 16-16 16 7.164062 16 16zm0 0" fill="#655a9c"/><path d="m4.488281 179.609375c-11.914062 58.582031.113281 119.5 33.402344 169.160156 33.285156 49.65625 85.0625 83.929688 143.78125 95.167969-4.5625-13.222656-3.304687-27.757812 3.457031-40 4.589844-7.535156 11.695313-13.203125 20.0625-16 4.882813-1.5 9.179688-4.484375 12.289063-8.539062 9.703125-13.65625 6.238281-38.886719-7.417969-54-6.667969-7.671876-16.046875-12.472657-26.175781-13.398438-5.929688.335938-11.679688 2.171875-16.710938 5.335938l-3.632812 1.832031c-9.472657 4.671875-42.398438 19.664062-68.421875 16.800781-26.023438-2.863281-43.121094-22.878906-53.21875-34.792969-24.175782-28.265625-28.855469-59.199219-33.8125-92-1.296875-8.550781-2.746094-18.449219-3.601563-29.566406zm0 0" fill="#655a9c"/><path d="m352 264c0 8.835938-7.164062 16-16 16s-16-7.164062-16-16 7.164062-16 16-16 16 7.164062 16 16zm0 0" fill="#655a9c"/><path d="m389.734375 323.910156c-14.167969 25.304688-29.980469 49.652344-47.335937 72.890625-1.507813 2.015625-3.878907 3.199219-6.398438 3.199219s-4.890625-1.183594-6.398438-3.199219c-.800781-1.039062-17.503906-23.257812-33.96875-49.855469-3.503906 4.160157-6.457031 8.320313-9.121093 12.167969-6.03125 8.703125-11.765625 16.976563-21.136719 16.976563-.871094 0-1.738281-.070313-2.597656-.210938-13.226563-1.902344-18.738282-18.398437-22.402344-29.375-4.371094-13.355468-5.789062-27.503906-4.152344-41.464844.722656-9.855468.914063-15.199218-2.773437-20.429687-6.21875-8.699219-19.328125-10.554687-34.519531-12.707031-11.773438-1.570313-23.734376-1-35.304688 1.691406-10.5625 3.488281-22.09375 2.46875-31.878906-2.816406-16.332032-10.621094-24.113282-30.4375-19.371094-49.328125 4.800781-14.304688 17.328125-18.402344 31.855469-23.144531 15.417969-4.351563 29.960937-11.359376 42.96875-20.703126 9.890625-7.296874 36.089843-26.632812 36.800781-49.808593.335938-11-5.078125-17.6875-12.574219-26.9375-9.140625-9.9375-15.730469-21.949219-19.203125-35-4.65625-19.511719-.582031-41.289063 11.890625-64.800781-17.503906 1.472656-34.765625 5.050781-51.410156 10.65625.273437.34375.503906.722656.800781 1.074218.519532.695313 1.023438 1.40625 1.519532 2.117188.859374 1.226562 1.660156 2.472656 2.402343 3.730468.429688.703126.871094 1.398438 1.269531 2.121094.90625 1.597656 1.746094 3.253906 2.519532 4.917969.183594.390625.394531.800781.570312 1.160156.917969 2.0625 1.726563 4.183594 2.445313 6.328125.210937.632813.378906 1.28125.578125 1.921875.480468 1.597657.917968 3.15625 1.289062 4.796875.175782.800782.34375 1.546875.496094 2.320313.308594 1.601562.558594 3.199219.796875 4.800781.089844.710938.203125 1.425781.273437 2.136719.222657 2.304687.367188 4.625.367188 6.960937 0 36.972656-58.902344 115.941406-65.597656 124.796875-1.511719 2.015625-3.882813 3.203125-6.402344 3.203125-2.515625 0-4.886719-1.1875-6.398438-3.203125-.152343-.199219-.695312-.925781-1.410156-1.894531l-.582031-.800781-.976563-1.328125-1.039062-1.40625-1.273438-1.753906-1.304687-1.808594-1.597656-2.207032c-.472657-.664062-.960938-1.34375-1.464844-2.0625-.503906-.722656-1.175781-1.65625-1.800781-2.542968-.625-.890625-1.160156-1.648438-1.75-2.503906l-1.921875-2.761719c-.671875-.96875-1.367188-1.984375-2.054688-3l-1.898437-2.777344c-.855469-1.261719-1.734375-2.582031-2.613282-3.902344-.539062-.800781-1.066406-1.601562-1.601562-2.402343-1.421875-2.15625-2.878906-4.375-4.34375-6.644532-.304688-.472656-.617188-.976562-.929688-1.457031-1.175781-1.832031-2.351562-3.671875-3.535156-5.601563-.542968-.863281-1.078125-1.75-1.597656-2.621093-.953125-1.546875-1.90625-3.082031-2.847656-4.640625-.601563-.984375-1.1875-1.96875-1.777344-2.960938-.894531-1.515625-1.789062-3.03125-2.679688-4.542968-.585937-1.007813-1.160156-2.015626-1.738281-3.023438-.863281-1.523438-1.71875-3.042969-2.566406-4.5625-.566406-1.03125-1.128906-2.054688-1.679687-3.078125-.800782-1.519531-1.601563-3.035156-2.398438-4.546875-.53125-1.015625-1.058594-2.023438-1.601562-3.039062-.273438-.535157-.566407-1.078126-.800782-1.597657-5.371094 8.050781-10.210937 16.441407-14.496094 25.117188-4.742187 27.242187-4.535156 55.113281.609376 82.28125 4.800781 31.75 8.953124 59.199219 30.167968 84 9.152344 10.769531 22.953125 27.023437 42.816406 29.246093 17.214844 1.914063 42.085938-6.605468 59.566407-15.199218l3.417969-1.726563c7.171874-4.40625 15.367187-6.867187 23.78125-7.144531h.351562c14.617188.921875 28.257812 7.640625 37.898438 18.664062 18.535156 20.503907 22.472656 54.398438 8.558593 73.96875-4.792969 6.492188-11.449219 11.375-19.078125 14.007813-5.207031 1.5-9.675781 4.863281-12.5625 9.449219-5.3125 10.050781-5.253906 22.09375.152344 32.09375.558594.910156 1.167969 1.785156 1.824219 2.625 87.617187 9.078125 172.417969-34.066406 216.664062-110.234375-8.597656-5.546875-17.957031-9.8125-27.785156-12.664063zm0 0" fill="#655a9c"/><path d="m46.648438 80.480469c13.804687 28.84375 30.332031 56.304687 49.351562 82.007812 20.039062-27.777343 56-82.558593 56-106.488281 0-30.929688-25.070312-56-56-56s-56 25.070312-56 56c.628906 8.511719 2.886719 16.820312 6.648438 24.480469zm49.351562-64.480469c17.671875 0 32 14.328125 32 32s-14.328125 32-32 32-32-14.328125-32-32 14.328125-32 32-32zm0 0" fill="#655a9c"/><path d="m339.265625 63.304688c-7.792969 3.433593-16.316406 4.867187-24.800781 4.175781-4.761719-.878907-9.679688.171875-13.664063 2.917969-12.113281 9.105468-17.496093 34.953124-6.015625 53.371093 8 12.796875 23.128906 16.09375 42.253906 20.269531 9.851563 2.128907 20.050782 2.078126 29.882813-.152343 11.558594-2.640625 23.578125-2.515625 35.078125.371093 12.628906 3.589844 24.472656 9.503907 34.929688 17.445313 1.0625.800781 2 1.871094 3.015624 2.777344-12.351562-44.898438-38.40625-84.824219-74.527343-114.207031-1.480469-1.210938-3.082031-2.257813-4.59375-3.425782-5.933594 6.957032-13.285157 12.566406-21.558594 16.457032zm0 0" fill="#655a9c"/><path d="m378.566406 310.824219c11.097656-21.664063 13.433594-33.070313 13.433594-38.824219-.050781-28.914062-22.0625-53.054688-50.847656-55.769531-1.703125-.152344-3.417969-.230469-5.152344-.230469-30.914062.035156-55.964844 25.085938-56 56 .628906 8.511719 2.886719 16.820312 6.648438 24.480469 5.050781 11.457031 10.820312 22.578125 17.28125 33.304687 11.589843 19.566406 24.542968 38.214844 32.070312 48.671875 15.6875-21.566406 29.90625-44.164062 42.566406-67.632812zm-74.566406-46.824219c0-17.671875 14.328125-32 32-32s32 14.328125 32 32-14.328125 32-32 32-32-14.328125-32-32zm0 0" fill="#655a9c"/><path d="m447.6875 234.902344c.242188-3.703125.3125-7.328125.3125-10.902344 0-7.199219-.40625-14.289062-1.078125-21.34375-3.957031-11.066406-10.820313-20.867188-19.867187-28.367188-8.707032-6.582031-18.550782-11.511718-29.039063-14.535156-9.320313-2.289062-19.054687-2.316406-28.390625-.089844-11.632812 2.5625-23.675781 2.613282-35.328125.152344-21.648437-4.71875-41.472656-9.039062-53.082031-27.578125-16.300782-26.148437-8.175782-60.972656 9.984375-74.636719 6.871093-4.976562 15.375-7.164062 23.792969-6.121093 6.050781.59375 12.148437-.359375 17.726562-2.777344 5.730469-2.726563 10.859375-6.5625 15.097656-11.285156-36.707031-24.351563-79.765625-37.3632815-123.816406-37.417969h-.917969c-14.320312 23.398438-19.546875 44.304688-15.296875 62.128906 2.984375 10.683594 8.492188 20.492188 16.0625 28.597656 8.191406 10.105469 16.664063 20.554688 16.152344 37.488282-.929688 30.960937-31.671875 53.648437-43.246094 62.203125-14.390625 10.382812-30.472656 18.199219-47.53125 23.09375-13.101562 4.289062-19.503906 6.625-21.597656 13-2.246094 11.824219 2.714844 23.859375 12.640625 30.664062 5.429687 3.382813 10.183594 2.65625 20.414063.695313 13.269531-3.039063 26.976562-3.65625 40.464843-1.816406 17.351563 2.449218 35.199219 4.976562 45.398438 19.265624 5.746093 9.195313 7.789062 20.230469 5.714843 30.871094-1.457031 11.855469-.308593 23.882813 3.367188 35.25 4.992188 14.964844 7.953125 18.398438 9.597656 18.621094 3.253906-2.90625 6.035156-6.304688 8.234375-10.070312 4.117188-6.160157 8.695313-12.003907 13.695313-17.472657-5.609375-9.640625-10.667969-19.589843-15.152344-29.800781-4.632812-9.621094-7.351562-20.054688-8-30.71875-.148438-20.757812 8.734375-40.554688 24.339844-54.246094 15.601562-13.691406 36.386718-19.925781 56.949218-17.082031 1.296876.167969 2.589844.296875 3.871094.535156h.105469c2.109375.394531 4.207031.875 6.269531 1.457031.800782.214844 1.527344.519532 2.296875.800782 1.304688.414062 2.625.800781 3.894531 1.296875 1.859376.703125 3.671876 1.511719 5.464844 2.398437l.511719.222656c24.605469 12.148438 40.214844 37.175782 40.296875 64.617188-1.019531 13.082031-4.742188 25.808594-10.9375 37.375 9.886719 3.148438 19.328125 7.546875 28.097656 13.089844 13.476563-27.316406 21.148438-57.132813 22.527344-87.5625zm0 0" fill="#655a9c"/></svg>
