<svg xmlns="http://www.w3.org/2000/svg" height="512" viewBox="0 0 448 448" width="512"><path d="M112 48c0 8.836-7.164 16-16 16s-16-7.164-16-16 7.164-16 16-16 16 7.164 16 16zM4.488 179.61a223.729 223.729 0 0 0 177.184 264.327 49.403 49.403 0 0 1 3.457-40 37.36 37.36 0 0 1 20.062-16 24.586 24.586 0 0 0 12.29-8.539c9.703-13.656 6.238-38.886-7.418-54A39.436 39.436 0 0 0 183.887 312a35.124 35.124 0 0 0-16.711 5.336l-3.633 1.832c-9.473 4.672-42.398 19.664-68.422 16.8C69.098 333.106 52 313.09 41.902 301.177c-24.175-28.266-28.855-59.2-33.812-92-1.297-8.551-2.746-18.45-3.602-29.567zM352 264c0 8.836-7.164 16-16 16s-16-7.164-16-16 7.164-16 16-16 16 7.164 16 16zm0 0" fill="#655a9c"/><path d="M389.734 323.91a663.546 663.546 0 0 1-47.336 72.89c-1.507 2.016-3.878 3.2-6.398 3.2s-4.89-1.184-6.398-3.2c-.801-1.038-17.504-23.257-33.97-49.855-3.503 4.16-6.456 8.32-9.12 12.168-6.032 8.703-11.766 16.977-21.137 16.977-.871 0-1.738-.07-2.598-.211-13.226-1.902-18.738-18.399-22.402-29.375a96.998 96.998 0 0 1-4.152-41.465c.722-9.855.914-15.2-2.774-20.43-6.219-8.699-19.328-10.554-34.52-12.707a98.403 98.403 0 0 0-35.304 1.692 40.412 40.412 0 0 1-31.879-2.817c-16.332-10.62-24.113-30.437-19.371-49.328 4.8-14.304 17.328-18.402 31.855-23.144a137.831 137.831 0 0 0 42.97-20.703c9.89-7.297 36.09-26.633 36.8-49.809.336-11-5.078-17.688-12.574-26.938a83.364 83.364 0 0 1-19.203-35c-4.657-19.511-.582-41.289 11.89-64.8a218.467 218.467 0 0 0-51.41 10.656c.274.344.504.723.8 1.074a80.42 80.42 0 0 1 1.52 2.117 56.865 56.865 0 0 1 2.403 3.73c.43.704.87 1.4 1.27 2.122a68.576 68.576 0 0 1 2.519 4.918c.183.39.394.8.57 1.16a71.266 71.266 0 0 1 2.445 6.328c.211.633.38 1.281.579 1.922.48 1.598.918 3.156 1.289 4.797.175.8.343 1.547.496 2.32.308 1.602.558 3.2.797 4.801.09.71.203 1.426.273 2.137.223 2.304.367 4.625.367 6.96 0 36.973-58.902 115.942-65.597 124.798a8.003 8.003 0 0 1-6.403 3.203 8.001 8.001 0 0 1-6.398-3.203c-.153-.2-.695-.926-1.41-1.895l-.582-.8-.977-1.329-1.039-1.406-1.273-1.754-1.305-1.809-1.598-2.207c-.472-.664-.96-1.343-1.465-2.062-.504-.723-1.175-1.656-1.8-2.543-.625-.89-1.16-1.649-1.75-2.504l-1.922-2.762a324.122 324.122 0 0 1-2.055-3l-1.898-2.777c-.856-1.262-1.735-2.582-2.614-3.902-.539-.801-1.066-1.602-1.601-2.403A807.194 807.194 0 0 1 62 141.098c-.305-.473-.617-.977-.93-1.457a321.315 321.315 0 0 1-3.535-5.602c-.543-.863-1.078-1.75-1.597-2.621-.954-1.547-1.907-3.082-2.848-4.64a282.568 282.568 0 0 1-1.777-2.962c-.895-1.515-1.79-3.03-2.68-4.543-.586-1.007-1.16-2.015-1.738-3.023a780.513 780.513 0 0 1-2.567-4.563c-.566-1.03-1.129-2.054-1.68-3.078-.8-1.52-1.601-3.035-2.398-4.547a379.438 379.438 0 0 0-1.602-3.039c-.273-.535-.566-1.078-.8-1.597a223.976 223.976 0 0 0-14.496 25.117 230.12 230.12 0 0 0 .609 82.281c4.8 31.75 8.953 59.2 30.168 84 9.152 10.77 22.953 27.024 42.816 29.246 17.215 1.914 42.086-6.605 59.567-15.199l3.418-1.726A48.476 48.476 0 0 1 183.71 296h.353a54.938 54.938 0 0 1 37.898 18.664c18.535 20.504 22.473 54.399 8.559 73.969a39.887 39.887 0 0 1-19.079 14.008 22.058 22.058 0 0 0-12.562 9.449 34.042 34.042 0 0 0 .152 32.094c.559.91 1.168 1.785 1.824 2.625 87.618 9.078 172.418-34.067 216.665-110.235a105.452 105.452 0 0 0-27.786-12.664zm0 0" fill="#655a9c"/><path d="M46.648 80.48A502.76 502.76 0 0 0 96 162.488C116.04 134.711 152 79.93 152 56c0-30.93-25.07-56-56-56S40 25.07 40 56a66.68 66.68 0 0 0 6.648 24.48zM96 16c17.672 0 32 14.328 32 32s-14.328 32-32 32-32-14.328-32-32 14.328-32 32-32zM339.266 63.305a51.193 51.193 0 0 1-24.801 4.175 18.247 18.247 0 0 0-13.664 2.918c-12.114 9.106-17.496 34.954-6.016 53.372 8 12.796 23.13 16.093 42.254 20.27a69.1 69.1 0 0 0 29.883-.153 75.246 75.246 0 0 1 35.078.37 105.393 105.393 0 0 1 34.93 17.446c1.062.8 2 1.871 3.015 2.777a223.717 223.717 0 0 0-74.527-114.207c-1.48-1.21-3.082-2.257-4.594-3.425a64.294 64.294 0 0 1-21.558 16.457zM378.566 310.824C389.664 289.16 392 277.754 392 272c-.05-28.914-22.063-53.055-50.848-55.77A57.758 57.758 0 0 0 336 216c-30.914.035-55.965 25.086-56 56a66.68 66.68 0 0 0 6.648 24.48 295.793 295.793 0 0 0 17.282 33.305C315.52 349.352 328.473 368 336 378.457a596.039 596.039 0 0 0 42.566-67.633zM304 264c0-17.672 14.328-32 32-32s32 14.328 32 32-14.328 32-32 32-32-14.328-32-32zm0 0" fill="#655a9c"/><path d="M447.688 234.902c.242-3.703.312-7.328.312-10.902 0-7.2-.406-14.29-1.078-21.344a65.494 65.494 0 0 0-19.867-28.367 89.077 89.077 0 0 0-29.04-14.535 60.346 60.346 0 0 0-28.39-.09 83.76 83.76 0 0 1-35.328.152c-21.649-4.718-41.473-9.039-53.082-27.578-16.3-26.148-8.176-60.972 9.984-74.636a33.537 33.537 0 0 1 23.793-6.122c6.051.594 12.149-.359 17.727-2.777a47.988 47.988 0 0 0 15.097-11.285A224.473 224.473 0 0 0 224 0h-.918c-14.32 23.398-19.547 44.305-15.297 62.129a69.151 69.151 0 0 0 16.063 28.598c8.191 10.105 16.664 20.554 16.152 37.488-.93 30.96-31.672 53.648-43.246 62.203a153.682 153.682 0 0 1-47.531 23.094c-13.102 4.289-19.504 6.625-21.598 13a30.32 30.32 0 0 0 12.64 30.664c5.43 3.383 10.184 2.656 20.415.695a112.898 112.898 0 0 1 40.465-1.816c17.351 2.449 35.199 4.976 45.398 19.265a42.805 42.805 0 0 1 5.715 30.871 82.031 82.031 0 0 0 3.367 35.25c4.992 14.965 7.953 18.399 9.598 18.622a41.715 41.715 0 0 0 8.234-10.07 146.718 146.718 0 0 1 13.695-17.473A295.614 295.614 0 0 1 272 302.719 82.324 82.324 0 0 1 264 272a71.484 71.484 0 0 1 24.34-54.246 71.494 71.494 0 0 1 56.95-17.082c1.296.168 2.589.297 3.87.535h.106a71.5 71.5 0 0 1 6.27 1.457c.8.215 1.526.52 2.296.8 1.305.415 2.625.802 3.895 1.298a60.982 60.982 0 0 1 5.464 2.398l.512.223A72.305 72.305 0 0 1 408 272a94.743 94.743 0 0 1-10.938 37.375 121.705 121.705 0 0 1 28.098 13.09 220.476 220.476 0 0 0 22.527-87.563zm0 0" fill="#655a9c"/></svg>