<?xml version="1.0" encoding="UTF-8" standalone="no"?>
<!-- Created with Inkscape (http://www.inkscape.org/) -->

<svg
   xmlns:dc="http://purl.org/dc/elements/1.1/"
   xmlns:cc="http://creativecommons.org/ns#"
   xmlns:rdf="http://www.w3.org/1999/02/22-rdf-syntax-ns#"
   xmlns:svg="http://www.w3.org/2000/svg"
   xmlns="http://www.w3.org/2000/svg"
   xmlns:xlink="http://www.w3.org/1999/xlink"
   xmlns:sodipodi="http://sodipodi.sourceforge.net/DTD/sodipodi-0.dtd"
   xmlns:inkscape="http://www.inkscape.org/namespaces/inkscape"
   width="210mm"
   height="297mm"
   viewBox="0 0 744.09448819 1052.3622047"
   id="svg2"
   version="1.1"
   inkscape:version="0.91 r13725"
   sodipodi:docname="Pokeball.svg">
  <defs
     id="defs4">
    <linearGradient
       inkscape:collect="always"
       id="linearGradient4481">
      <stop
         style="stop-color:#ffffff;stop-opacity:1"
         offset="0"
         id="stop4483" />
      <stop
         style="stop-color:#ff0000;stop-opacity:0;"
         offset="1"
         id="stop4485" />
    </linearGradient>
    <linearGradient
       inkscape:collect="always"
       xlink:href="#linearGradient4481"
       id="linearGradient4489"
       x1="-1500"
       y1="892.36218"
       x2="-1420"
       y2="1312.3622"
       gradientUnits="userSpaceOnUse" />
    <filter
       inkscape:collect="always"
       style="color-interpolation-filters:sRGB"
       id="filter4520"
       x="-0.035999826"
       width="1.0719997"
       y="-0.036000174"
       height="1.0720003">
      <feGaussianBlur
         inkscape:collect="always"
         stdDeviation="5.9969831"
         id="feGaussianBlur4522" />
    </filter>
  </defs>
  <sodipodi:namedview
     id="base"
     pagecolor="#ffffff"
     bordercolor="#666666"
     borderopacity="1.0"
     inkscape:pageopacity="0.0"
     inkscape:pageshadow="2"
     inkscape:zoom="0.49497475"
     inkscape:cx="198.82156"
     inkscape:cy="858.84176"
     inkscape:document-units="px"
     inkscape:current-layer="layer1"
     showgrid="true">
    <inkscape:grid
       type="xygrid"
       id="grid3336" />
  </sodipodi:namedview>
  <metadata
     id="metadata7">
    <rdf:RDF>
      <cc:Work
         rdf:about="">
        <dc:format>image/svg+xml</dc:format>
        <dc:type
           rdf:resource="http://purl.org/dc/dcmitype/StillImage" />
        <dc:title></dc:title>
      </cc:Work>
    </rdf:RDF>
  </metadata>
  <g
     inkscape:label="Layer 1"
     inkscape:groupmode="layer"
     id="layer1">
    <g
       id="g4498"
       style="fill:#000000;filter:url(#filter4520)"
       transform="translate(1872.6543,-633.89611)">
      <circle
         r="189.97368"
         cy="1160.0773"
         cx="-1500.6071"
         id="circle4500"
         style="opacity:1;fill:#000000;fill-opacity:1;stroke:#000000;stroke-width:2.84960508;stroke-linejoin:round;stroke-miterlimit:4;stroke-dasharray:none;stroke-dashoffset:0;stroke-opacity:1" />
      <path
         inkscape:connector-curvature="0"
         id="path4502"
         d="m -1500.5133,960.17876 c -105.4697,0 -191.864,81.64094 -199.4512,185.17384 l 109.1387,0 a 92.057918,92.057918 0 0 1 90.8164,-77.2325 92.057918,92.057918 0 0 1 90.7773,77.5645 l 0.072,0 0,-0.332 107.9102,0 c -8.6743,-90.1936 -94.5663,-185.17384 -199.2637,-185.17384 z"
         style="opacity:1;fill:#000000;fill-opacity:1;stroke:#000000;stroke-width:3;stroke-linejoin:round;stroke-miterlimit:4;stroke-dasharray:none;stroke-dashoffset:0;stroke-opacity:1" />
      <path
         inkscape:connector-curvature="0"
         id="path4504"
         d="m -1500.6071,1091.9356 a 68.140961,68.140961 0 0 0 -68.1406,68.1406 68.140961,68.140961 0 0 0 68.1406,68.1426 68.140961,68.140961 0 0 0 68.1407,-68.1426 68.140961,68.140961 0 0 0 -68.1407,-68.1406 z m 0,43.4903 a 24.651379,24.651379 0 0 1 24.6524,24.6503 24.651379,24.651379 0 0 1 -24.6524,24.6524 24.651379,24.651379 0 0 1 -24.6503,-24.6524 24.651379,24.651379 0 0 1 24.6503,-24.6503 z"
         style="opacity:1;fill:#000000;fill-opacity:1;stroke:#000000;stroke-width:3;stroke-linejoin:round;stroke-miterlimit:4;stroke-dasharray:none;stroke-dashoffset:0;stroke-opacity:1" />
      <path
         inkscape:connector-curvature="0"
         id="path4506"
         d="m -1700.5075,1165.6066 c 2.9823,107.8525 91.3447,194.3691 199.918,194.3691 108.2636,0 196.4238,-101.5605 199.8828,-194.3691 l -107.5175,0 a 92.057918,92.057918 0 0 1 -91.8614,86.4277 92.057918,92.057918 0 0 1 -91.7754,-86.4277 l -108.6465,0 z"
         style="opacity:1;fill:#000000;fill-opacity:1;stroke:#000000;stroke-width:3;stroke-linejoin:round;stroke-miterlimit:4;stroke-dasharray:none;stroke-dashoffset:0;stroke-opacity:1" />
      <path
         style="opacity:1;fill:#000000;fill-opacity:1;stroke:#000000;stroke-width:3;stroke-linejoin:round;stroke-miterlimit:4;stroke-dasharray:none;stroke-dashoffset:0;stroke-opacity:1"
         d="m -1500.5133,960.17876 c -105.4697,0 -191.864,81.64094 -199.4512,185.17384 l 109.1387,0 a 92.057918,92.057918 0 0 1 90.8164,-77.2325 92.057918,92.057918 0 0 1 90.7773,77.5645 l 0.072,0 0,-0.332 107.9102,0 c -8.6743,-90.1936 -94.5663,-185.17384 -199.2637,-185.17384 z"
         id="path4508"
         inkscape:connector-curvature="0" />
    </g>
    <g
       id="g4491"
       transform="translate(1872.6543,-633.89613)">
      <circle
         style="opacity:1;fill:#000000;fill-opacity:1;stroke:#000000;stroke-width:2.84960508;stroke-linejoin:round;stroke-miterlimit:4;stroke-dasharray:none;stroke-dashoffset:0;stroke-opacity:1"
         id="circle4275"
         cx="-1500.6071"
         cy="1160.0773"
         r="189.97368" />
      <path
         style="opacity:1;fill:#ff0000;fill-opacity:1;stroke:#000000;stroke-width:3;stroke-linejoin:round;stroke-miterlimit:4;stroke-dasharray:none;stroke-dashoffset:0;stroke-opacity:1"
         d="m -1500.5133,960.17876 c -105.4697,0 -191.864,81.64094 -199.4512,185.17384 l 109.1387,0 a 92.057918,92.057918 0 0 1 90.8164,-77.2325 92.057918,92.057918 0 0 1 90.7773,77.5645 l 0.072,0 0,-0.332 107.9102,0 c -8.6743,-90.1936 -94.5663,-185.17384 -199.2637,-185.17384 z"
         id="path4277"
         inkscape:connector-curvature="0" />
      <path
         style="opacity:1;fill:#f2f2f2;fill-opacity:1;stroke:#000000;stroke-width:3;stroke-linejoin:round;stroke-miterlimit:4;stroke-dasharray:none;stroke-dashoffset:0;stroke-opacity:1"
         d="m -1500.6071,1091.9356 a 68.140961,68.140961 0 0 0 -68.1406,68.1406 68.140961,68.140961 0 0 0 68.1406,68.1426 68.140961,68.140961 0 0 0 68.1407,-68.1426 68.140961,68.140961 0 0 0 -68.1407,-68.1406 z m 0,43.4903 a 24.651379,24.651379 0 0 1 24.6524,24.6503 24.651379,24.651379 0 0 1 -24.6524,24.6524 24.651379,24.651379 0 0 1 -24.6503,-24.6524 24.651379,24.651379 0 0 1 24.6503,-24.6503 z"
         id="path4279"
         inkscape:connector-curvature="0" />
      <path
         style="opacity:1;fill:#f9f9f9;fill-opacity:1;stroke:#000000;stroke-width:3;stroke-linejoin:round;stroke-miterlimit:4;stroke-dasharray:none;stroke-dashoffset:0;stroke-opacity:1"
         d="m -1700.5075,1165.6066 c 2.9823,107.8525 91.3447,194.3691 199.918,194.3691 108.2636,0 196.4238,-101.5605 199.8828,-194.3691 l -107.5175,0 a 92.057918,92.057918 0 0 1 -91.8614,86.4277 92.057918,92.057918 0 0 1 -91.7754,-86.4277 l -108.6465,0 z"
         id="path4281"
         inkscape:connector-curvature="0" />
      <path
         inkscape:connector-curvature="0"
         id="path4479"
         d="m -1500.5133,960.17876 c -105.4697,0 -191.864,81.64094 -199.4512,185.17384 l 109.1387,0 a 92.057918,92.057918 0 0 1 90.8164,-77.2325 92.057918,92.057918 0 0 1 90.7773,77.5645 l 0.072,0 0,-0.332 107.9102,0 c -8.6743,-90.1936 -94.5663,-185.17384 -199.2637,-185.17384 z"
         style="opacity:1;fill:url(#linearGradient4489);fill-opacity:1;stroke:#000000;stroke-width:3;stroke-linejoin:round;stroke-miterlimit:4;stroke-dasharray:none;stroke-dashoffset:0;stroke-opacity:1" />
    </g>
  </g>
</svg>
