<svg xmlns="http://www.w3.org/2000/svg" xmlns:xlink="http://www.w3.org/1999/xlink" width="500" zoomAndPan="magnify" viewBox="0 0 375 374.999991" height="500" preserveAspectRatio="xMidYMid meet" version="1.0"><defs><clipPath id="e249b3c0df"><path d="M 59.199219 59.199219 L 315.699219 59.199219 L 315.699219 315.699219 L 59.199219 315.699219 Z M 59.199219 59.199219 " clip-rule="nonzero"/></clipPath><clipPath id="3e1e29ddba"><path d="M 112.5 134.144531 L 176.699219 134.144531 L 176.699219 240.84375 L 112.5 240.84375 Z M 112.5 134.144531 " clip-rule="nonzero"/></clipPath><clipPath id="f867d23946"><path d="M 198.300781 134.144531 L 262.5 134.144531 L 262.5 240.84375 L 198.300781 240.84375 Z M 198.300781 134.144531 " clip-rule="nonzero"/></clipPath></defs><g clip-path="url(#e249b3c0df)"><path fill="#004aad" d="M 315.792969 187.496094 C 315.792969 189.597656 315.742188 191.695312 315.640625 193.792969 C 315.539062 195.890625 315.382812 197.984375 315.175781 200.074219 C 314.972656 202.164062 314.714844 204.246094 314.40625 206.324219 C 314.097656 208.398438 313.738281 210.46875 313.328125 212.527344 C 312.921875 214.585938 312.460938 216.636719 311.949219 218.671875 C 311.441406 220.707031 310.878906 222.730469 310.269531 224.742188 C 309.660156 226.75 309.003906 228.742188 308.296875 230.71875 C 307.585938 232.695312 306.832031 234.65625 306.027344 236.59375 C 305.226562 238.535156 304.375 240.453125 303.476562 242.351562 C 302.578125 244.25 301.636719 246.125 300.644531 247.976562 C 299.65625 249.828125 298.621094 251.65625 297.542969 253.457031 C 296.460938 255.257812 295.339844 257.03125 294.171875 258.777344 C 293.007812 260.523438 291.796875 262.238281 290.546875 263.925781 C 289.296875 265.609375 288.003906 267.265625 286.671875 268.886719 C 285.339844 270.511719 283.96875 272.101562 282.558594 273.65625 C 281.148438 275.210938 279.703125 276.734375 278.21875 278.21875 C 276.734375 279.703125 275.210938 281.148438 273.65625 282.558594 C 272.101562 283.96875 270.511719 285.339844 268.886719 286.671875 C 267.265625 288.003906 265.609375 289.296875 263.925781 290.546875 C 262.238281 291.796875 260.523438 293.007812 258.777344 294.171875 C 257.03125 295.339844 255.257812 296.460938 253.457031 297.542969 C 251.65625 298.621094 249.828125 299.65625 247.976562 300.644531 C 246.125 301.636719 244.25 302.578125 242.351562 303.476562 C 240.453125 304.375 238.535156 305.226562 236.59375 306.027344 C 234.65625 306.832031 232.695312 307.585938 230.71875 308.296875 C 228.742188 309.003906 226.75 309.660156 224.742188 310.269531 C 222.730469 310.878906 220.707031 311.441406 218.671875 311.949219 C 216.632812 312.460938 214.585938 312.917969 212.527344 313.328125 C 210.46875 313.738281 208.398438 314.097656 206.324219 314.40625 C 204.246094 314.714844 202.164062 314.972656 200.074219 315.175781 C 197.984375 315.382812 195.890625 315.539062 193.792969 315.640625 C 191.695312 315.742188 189.597656 315.792969 187.496094 315.792969 C 185.398438 315.792969 183.300781 315.742188 181.203125 315.640625 C 179.105469 315.539062 177.011719 315.382812 174.921875 315.175781 C 172.832031 314.972656 170.75 314.714844 168.671875 314.40625 C 166.597656 314.097656 164.527344 313.738281 162.46875 313.328125 C 160.410156 312.917969 158.359375 312.460938 156.324219 311.949219 C 154.289062 311.441406 152.265625 310.878906 150.253906 310.269531 C 148.246094 309.660156 146.253906 309.003906 144.277344 308.296875 C 142.300781 307.585938 140.339844 306.832031 138.402344 306.027344 C 136.460938 305.226562 134.542969 304.375 132.644531 303.476562 C 130.746094 302.578125 128.871094 301.636719 127.019531 300.644531 C 125.167969 299.65625 123.339844 298.621094 121.539062 297.542969 C 119.738281 296.460938 117.964844 295.339844 116.21875 294.171875 C 114.472656 293.007812 112.757812 291.796875 111.070312 290.546875 C 109.386719 289.296875 107.730469 288.003906 106.105469 286.671875 C 104.484375 285.339844 102.894531 283.96875 101.339844 282.558594 C 99.785156 281.148438 98.261719 279.703125 96.777344 278.21875 C 95.292969 276.734375 93.847656 275.210938 92.4375 273.65625 C 91.027344 272.101562 89.65625 270.511719 88.324219 268.886719 C 86.992188 267.265625 85.699219 265.609375 84.449219 263.925781 C 83.199219 262.238281 81.988281 260.523438 80.824219 258.777344 C 79.65625 257.03125 78.535156 255.257812 77.453125 253.457031 C 76.375 251.65625 75.339844 249.828125 74.351562 247.976562 C 73.359375 246.125 72.417969 244.25 71.519531 242.351562 C 70.621094 240.453125 69.769531 238.535156 68.96875 236.59375 C 68.164062 234.65625 67.40625 232.695312 66.699219 230.71875 C 65.992188 228.742188 65.335938 226.75 64.726562 224.742188 C 64.117188 222.730469 63.554688 220.707031 63.046875 218.671875 C 62.535156 216.632812 62.074219 214.585938 61.667969 212.527344 C 61.257812 210.46875 60.898438 208.398438 60.589844 206.324219 C 60.28125 204.246094 60.023438 202.164062 59.820312 200.074219 C 59.613281 197.984375 59.457031 195.890625 59.355469 193.792969 C 59.253906 191.695312 59.199219 189.597656 59.199219 187.496094 C 59.199219 185.398438 59.253906 183.300781 59.355469 181.203125 C 59.457031 179.105469 59.613281 177.011719 59.820312 174.921875 C 60.023438 172.832031 60.28125 170.75 60.589844 168.671875 C 60.898438 166.597656 61.257812 164.527344 61.667969 162.46875 C 62.074219 160.410156 62.535156 158.359375 63.046875 156.324219 C 63.554688 154.289062 64.117188 152.265625 64.726562 150.253906 C 65.335938 148.246094 65.992188 146.253906 66.699219 144.277344 C 67.40625 142.300781 68.164062 140.339844 68.96875 138.402344 C 69.769531 136.460938 70.621094 134.542969 71.519531 132.644531 C 72.417969 130.746094 73.359375 128.871094 74.351562 127.019531 C 75.339844 125.167969 76.375 123.339844 77.453125 121.539062 C 78.535156 119.738281 79.65625 117.964844 80.824219 116.21875 C 81.988281 114.472656 83.199219 112.757812 84.449219 111.070312 C 85.699219 109.386719 86.992188 107.730469 88.324219 106.105469 C 89.65625 104.484375 91.027344 102.894531 92.4375 101.339844 C 93.847656 99.785156 95.292969 98.261719 96.777344 96.777344 C 98.261719 95.292969 99.785156 93.847656 101.339844 92.4375 C 102.894531 91.027344 104.484375 89.65625 106.105469 88.324219 C 107.730469 86.992188 109.386719 85.699219 111.070312 84.449219 C 112.757812 83.199219 114.472656 81.988281 116.21875 80.824219 C 117.964844 79.65625 119.738281 78.535156 121.539062 77.453125 C 123.339844 76.375 125.167969 75.339844 127.019531 74.351562 C 128.871094 73.359375 130.746094 72.417969 132.644531 71.519531 C 134.542969 70.621094 136.460938 69.769531 138.402344 68.96875 C 140.339844 68.164062 142.300781 67.40625 144.277344 66.699219 C 146.253906 65.992188 148.246094 65.335938 150.253906 64.726562 C 152.265625 64.117188 154.289062 63.554688 156.324219 63.046875 C 158.359375 62.535156 160.410156 62.074219 162.46875 61.667969 C 164.527344 61.257812 166.597656 60.898438 168.671875 60.589844 C 170.75 60.28125 172.832031 60.023438 174.921875 59.820312 C 177.011719 59.613281 179.105469 59.457031 181.203125 59.355469 C 183.300781 59.253906 185.398438 59.199219 187.496094 59.199219 C 189.597656 59.199219 191.695312 59.253906 193.792969 59.355469 C 195.890625 59.457031 197.984375 59.613281 200.074219 59.820312 C 202.164062 60.023438 204.246094 60.28125 206.324219 60.589844 C 208.398438 60.898438 210.46875 61.257812 212.527344 61.667969 C 214.585938 62.074219 216.632812 62.535156 218.671875 63.046875 C 220.707031 63.554688 222.730469 64.117188 224.742188 64.726562 C 226.75 65.335938 228.742188 65.992188 230.71875 66.699219 C 232.695312 67.40625 234.65625 68.164062 236.59375 68.96875 C 238.535156 69.769531 240.453125 70.621094 242.351562 71.519531 C 244.25 72.417969 246.125 73.359375 247.976562 74.351562 C 249.828125 75.339844 251.65625 76.375 253.457031 77.453125 C 255.257812 78.535156 257.03125 79.65625 258.777344 80.824219 C 260.523438 81.988281 262.238281 83.199219 263.925781 84.449219 C 265.609375 85.699219 267.265625 86.992188 268.886719 88.324219 C 270.511719 89.65625 272.101562 91.027344 273.65625 92.4375 C 275.210938 93.847656 276.734375 95.292969 278.21875 96.777344 C 279.703125 98.261719 281.148438 99.785156 282.558594 101.339844 C 283.96875 102.894531 285.339844 104.484375 286.671875 106.105469 C 288.003906 107.730469 289.296875 109.386719 290.546875 111.070312 C 291.796875 112.757812 293.007812 114.472656 294.171875 116.21875 C 295.339844 117.964844 296.460938 119.738281 297.542969 121.539062 C 298.621094 123.339844 299.65625 125.167969 300.644531 127.019531 C 301.636719 128.871094 302.578125 130.746094 303.476562 132.644531 C 304.375 134.542969 305.226562 136.460938 306.027344 138.402344 C 306.832031 140.339844 307.585938 142.300781 308.296875 144.277344 C 309.003906 146.253906 309.660156 148.246094 310.269531 150.253906 C 310.878906 152.265625 311.441406 154.289062 311.949219 156.324219 C 312.460938 158.359375 312.921875 160.410156 313.328125 162.46875 C 313.738281 164.527344 314.097656 166.597656 314.40625 168.671875 C 314.714844 170.75 314.972656 172.832031 315.175781 174.921875 C 315.382812 177.011719 315.539062 179.105469 315.640625 181.203125 C 315.742188 183.300781 315.792969 185.398438 315.792969 187.496094 Z M 315.792969 187.496094 " fill-opacity="1" fill-rule="nonzero"/></g><g clip-path="url(#3e1e29ddba)"><path fill="#ffffff" d="M 144.820312 177.277344 C 141.058594 177.277344 137.464844 177.96875 134.109375 179.171875 C 134.40625 175.773438 135.023438 172.347656 135.988281 168.953125 C 137.949219 161.972656 141.503906 155.261719 146.28125 149.265625 C 151.074219 143.277344 157.191406 138.058594 164.3125 134.144531 C 156.394531 135.902344 148.613281 139.296875 141.609375 144.199219 C 134.621094 149.105469 128.320312 155.464844 123.523438 163.074219 C 118.707031 170.65625 115.253906 179.390625 113.609375 188.691406 C 112.324219 196.082031 112.128906 203.785156 113.160156 211.480469 C 113.3125 213.496094 113.660156 215.453125 114.171875 217.347656 C 114.179688 217.378906 114.183594 217.410156 114.191406 217.441406 L 114.195312 217.4375 C 117.886719 230.90625 130.199219 240.84375 144.820312 240.84375 C 162.347656 240.84375 176.605469 226.585938 176.605469 209.058594 C 176.605469 191.535156 162.347656 177.277344 144.820312 177.277344 " fill-opacity="1" fill-rule="nonzero"/></g><g clip-path="url(#f867d23946)"><path fill="#ffffff" d="M 230.714844 177.277344 C 226.953125 177.277344 223.359375 177.96875 220.003906 179.171875 C 220.300781 175.773438 220.917969 172.347656 221.882812 168.953125 C 223.84375 161.972656 227.398438 155.261719 232.175781 149.265625 C 236.96875 143.277344 243.085938 138.058594 250.207031 134.144531 C 242.289062 135.902344 234.507812 139.296875 227.503906 144.199219 C 220.519531 149.105469 214.214844 155.464844 209.417969 163.074219 C 204.601562 170.65625 201.148438 179.390625 199.503906 188.691406 C 198.21875 196.085938 198.027344 203.785156 199.058594 211.484375 C 199.210938 213.496094 199.554688 215.453125 200.066406 217.34375 C 200.074219 217.375 200.078125 217.40625 200.085938 217.441406 L 200.089844 217.4375 C 203.78125 230.90625 216.09375 240.84375 230.714844 240.84375 C 248.242188 240.84375 262.5 226.585938 262.5 209.058594 C 262.5 191.535156 248.242188 177.277344 230.714844 177.277344 " fill-opacity="1" fill-rule="nonzero"/></g></svg>