<svg width="293" height="64" viewBox="0 0 293 64" fill="none" xmlns="http://www.w3.org/2000/svg" alt="Mail.tm">
  <path fill-rule="evenodd" clip-rule="evenodd" d="M48.972 15.0235C45.7678 11.8212 41.7227 9.59111 37.3044 8.59112C32.8861 7.59113 28.2749 7.86204 24.0041 9.37253C19.7333 10.883 15.9771 13.5714 13.17 17.1269C10.3628 20.6823 8.61918 24.9597 8.14076 29.4644C7.66234 33.9692 8.46862 38.5173 10.4664 42.5831C12.4642 46.6489 15.5718 50.0662 19.4301 52.44C23.2884 54.8139 27.7398 56.0473 32.2696 55.9976C36.7994 55.9479 41.2227 54.6173 45.028 52.1594C45.4685 51.8574 45.9651 51.6466 46.4883 51.5396C47.0116 51.4325 47.551 51.4314 48.0747 51.5362C48.5985 51.641 49.0959 51.8496 49.5377 52.1497C49.9795 52.4498 50.3568 52.8354 50.6471 53.2837C50.9375 53.732 51.1352 54.2338 51.2285 54.7597C51.3218 55.2856 51.3088 55.8249 51.1903 56.3457C51.0719 56.8665 50.8503 57.3583 50.5387 57.7921C50.2271 58.2259 49.8317 58.5929 49.376 58.8714C43.4029 62.7339 36.3131 64.496 29.2267 63.8796C22.1403 63.2631 15.4613 60.3031 10.2449 55.4672C5.02841 50.6313 1.5719 44.1953 0.421396 37.1758C-0.729111 30.1563 0.49197 22.9536 3.89173 16.7055C7.29149 10.4574 12.6761 5.52015 19.1949 2.67375C25.7138 -0.172639 32.9951 -0.765921 39.8888 0.987635C46.7824 2.74119 52.8952 6.74162 57.2616 12.3569C61.628 17.9722 63.999 24.8823 64 31.9954C64.0007 34.2243 63.3807 36.4094 62.2094 38.3057C61.0381 40.2019 59.3618 41.7345 57.3684 42.7317C55.375 43.7288 53.1432 44.151 50.9233 43.951C48.7034 43.751 46.5831 42.9368 44.8 41.5994C42.5206 44.6387 39.2341 46.7676 35.5286 47.6055C31.8231 48.4433 27.9404 47.9353 24.5752 46.1724C21.21 44.4094 18.5819 41.5066 17.1611 37.9832C15.7403 34.4599 15.6196 30.5459 16.8205 26.9417C18.0214 23.3375 20.4656 20.2781 23.7157 18.3111C26.9659 16.3441 30.8099 15.5977 34.56 16.2056C38.3101 16.8134 41.7215 18.7358 44.1839 21.6287C46.6464 24.5217 47.9991 28.1964 48 31.9954C48 33.0563 48.4214 34.0737 49.1716 34.8239C49.9217 35.574 50.9391 35.9954 52 35.9954C53.0609 35.9954 54.0783 35.574 54.8284 34.8239C55.5786 34.0737 56 33.0563 56 31.9954C56 25.8474 53.656 19.7154 48.972 15.0235ZM40 31.9954C40 29.8737 39.1572 27.8389 37.6569 26.3386C36.1566 24.8383 34.1218 23.9954 32 23.9954C29.8783 23.9954 27.8435 24.8383 26.3432 26.3386C24.8429 27.8389 24 29.8737 24 31.9954C24 34.1172 24.8429 36.152 26.3432 37.6523C27.8435 39.1526 29.8783 39.9954 32 39.9954C34.1218 39.9954 36.1566 39.1526 37.6569 37.6523C39.1572 36.152 40 34.1172 40 31.9954Z" fill="#5850EC"/>
  <path d="M112.168 18.104C115.837 18.104 118.76 19.2987 120.936 21.688C123.155 24.0773 124.264 27.2773 124.264 31.288V51H116.008V31.864C116.008 29.944 115.539 28.4507 114.6 27.384C113.661 26.3173 112.339 25.784 110.632 25.784C108.755 25.784 107.283 26.4027 106.216 27.64C105.192 28.8773 104.68 30.6693 104.68 33.016V51H96.424V31.864C96.424 29.944 95.9547 28.4507 95.016 27.384C94.0773 26.3173 92.7547 25.784 91.048 25.784C89.2133 25.784 87.7413 26.4027 86.632 27.64C85.5653 28.8773 85.032 30.6693 85.032 33.016V51H76.776V19H85.032V22.392C86.952 19.5333 89.9173 18.104 93.928 18.104C97.8533 18.104 100.755 19.64 102.632 22.712C104.765 19.64 107.944 18.104 112.168 18.104ZM155.596 19H163.852V51H155.596V47.224C153.121 50.3387 149.644 51.896 145.164 51.896C140.897 51.896 137.228 50.2747 134.156 47.032C131.127 43.7467 129.612 39.736 129.612 35C129.612 30.264 131.127 26.2747 134.156 23.032C137.228 19.7467 140.897 18.104 145.164 18.104C149.644 18.104 153.121 19.6613 155.596 22.776V19ZM140.364 41.528C142.028 43.192 144.14 44.024 146.7 44.024C149.26 44.024 151.372 43.192 153.036 41.528C154.743 39.8213 155.596 37.6453 155.596 35C155.596 32.3547 154.743 30.2 153.036 28.536C151.372 26.8293 149.26 25.976 146.7 25.976C144.14 25.976 142.028 26.8293 140.364 28.536C138.7 30.2 137.868 32.3547 137.868 35C137.868 37.6453 138.7 39.8213 140.364 41.528ZM175.435 15.16C174.069 15.16 172.875 14.6693 171.851 13.688C170.869 12.664 170.379 11.4693 170.379 10.104C170.379 8.73867 170.869 7.544 171.851 6.52C172.875 5.496 174.069 4.984 175.435 4.984C176.843 4.984 178.037 5.496 179.019 6.52C180.043 7.544 180.555 8.73867 180.555 10.104C180.555 11.4693 180.043 12.664 179.019 13.688C178.037 14.6693 176.843 15.16 175.435 15.16ZM171.339 51V19H179.595V51H171.339ZM187.151 51V4.28H195.407V51H187.151ZM211.604 50.232C210.537 51.2987 209.257 51.832 207.764 51.832C206.27 51.832 204.99 51.2987 203.924 50.232C202.857 49.1653 202.324 47.8853 202.324 46.392C202.324 44.8987 202.857 43.6187 203.924 42.552C204.99 41.4853 206.27 40.952 207.764 40.952C209.257 40.952 210.537 41.4853 211.604 42.552C212.67 43.6187 213.204 44.8987 213.204 46.392C213.204 47.8853 212.67 49.1653 211.604 50.232Z" fill="#252F3F"/>
  <path d="M238.393 26.936H231.161V40.248C231.161 41.3573 231.438 42.168 231.993 42.68C232.547 43.192 233.358 43.4907 234.425 43.576C235.491 43.6187 236.814 43.5973 238.393 43.512V51C232.718 51.64 228.707 51.1067 226.361 49.4C224.057 47.6933 222.905 44.6427 222.905 40.248V26.936H217.337V19H222.905V12.536L231.161 10.04V19H238.393V26.936ZM280.106 18.104C283.775 18.104 286.698 19.2987 288.874 21.688C291.092 24.0773 292.202 27.2773 292.202 31.288V51H283.946V31.864C283.946 29.944 283.476 28.4507 282.538 27.384C281.599 26.3173 280.276 25.784 278.569 25.784C276.692 25.784 275.22 26.4027 274.154 27.64C273.13 28.8773 272.618 30.6693 272.618 33.016V51H264.362V31.864C264.362 29.944 263.892 28.4507 262.954 27.384C262.015 26.3173 260.692 25.784 258.986 25.784C257.151 25.784 255.679 26.4027 254.57 27.64C253.503 28.8773 252.97 30.6693 252.97 33.016V51H244.714V19H252.97V22.392C254.89 19.5333 257.855 18.104 261.866 18.104C265.791 18.104 268.692 19.64 270.57 22.712C272.703 19.64 275.882 18.104 280.106 18.104Z" fill="#5850EC"/>
</svg>
